<svg viewBox="0 0 12 12" width="60px" height="60px" xmlns="http://www.w3.org/2000/svg"><path fill-rule="evenodd" d="M 3,0 9,0 9,2 12,2 12,8 11,8 11,12 7,12 7,11 5,11 5,12 1,12 1,8 0,8 0,2 3,2z M 3,3 4,3 4,4 3,4z M 9,4 8,4 8,3 9,3z" fill="#32A467"/><path fill-rule="evenodd" d="M 4,1 5,1 5,2 4,2z" fill="#ffffff"/><path fill-rule="evenodd" d="M 7,1 8,1 8,2 7,2z" fill="#ffffff"/><path fill-rule="evenodd" d="M 5,2 7,2 7,3 5,3z" fill="#ffffff"/><path fill-rule="evenodd" d="M 1,3 2,3 2,5 1,5z" fill="#ffffff"/><path fill-rule="evenodd" d="M 10,3 11,3 11,5 10,5z" fill="#ffffff"/><path fill-rule="evenodd" d="M 5,4 7,4 7,5 5,5z" fill="#ffffff"/><path fill-rule="evenodd" d="M 4,5 5,5 5,6 4,6z" fill="#ffffff"/><path fill-rule="evenodd" d="M 7,5 8,5 8,6 7,6z" fill="#ffffff"/><path fill-rule="evenodd" d="M 1,6 3,6 3,7 5,7 5,6 7,6 7,7 9,7 9,6 11,6 11,7 10,7 10,9 9,9 9,8 3,8 3,9 2,9 2,7 1,7z" fill="#ffffff"/><path fill-rule="evenodd" d="M 4,9 5,9 5,10 4,10z" fill="#ffffff"/><path fill-rule="evenodd" d="M 7,9 8,9 8,10 7,10z" fill="#ffffff"/><path fill-rule="evenodd" d="M 2,10 4,10 4,11 2,11z" fill="#ffffff"/><path fill-rule="evenodd" d="M 8,10 10,10 10,11 8,11z" fill="#ffffff"/></svg>